<svg width="82" height="82" viewBox="0 0 82 82" fill="none" xmlns="http://www.w3.org/2000/svg">
<path d="M41.0085 60.1203C36.2439 60.1215 31.6502 58.3316 28.1256 55.1006C24.601 51.8697 22.3991 47.4299 21.9503 42.6496C21.5016 37.8693 22.8384 33.0922 25.6992 29.2525C28.5601 25.4127 32.7392 22.7865 37.4196 21.8873C37.7451 21.8251 38.0818 21.8957 38.3556 22.0837C38.6294 22.2717 38.818 22.5616 38.8797 22.8896C38.9414 23.2176 38.8713 23.557 38.6848 23.8329C38.4983 24.1089 38.2106 24.2989 37.8851 24.3611C33.8128 25.1376 30.1746 27.4176 27.6824 30.7549C25.1902 34.0922 24.0234 38.2466 24.4103 42.4051C24.7973 46.5637 26.7101 50.427 29.7745 53.2392C32.8389 56.0514 36.8343 57.61 40.9789 57.61C45.1235 57.61 49.1189 56.0514 52.1833 53.2392C55.2477 50.427 57.1605 46.5637 57.5475 42.4051C57.9344 38.2466 56.7676 34.0922 54.2754 30.7549C51.7832 27.4176 48.145 25.1376 44.0727 24.3611C43.7472 24.3 43.4591 24.1111 43.2717 23.8359C43.0844 23.5608 43.0133 23.2219 43.0739 22.8939C43.1345 22.5658 43.3219 22.2755 43.595 22.0867C43.868 21.8979 44.2043 21.8262 44.5298 21.8873C49.2148 22.7758 53.4021 25.3944 56.2721 29.2306C59.1421 33.0668 60.488 37.8443 60.0465 42.628C59.6049 47.4117 57.4077 51.8571 53.8849 55.0941C50.3621 58.331 45.7673 60.1264 41.0001 60.1288L41.0085 60.1203Z" fill="#FF511A"/>
<path d="M40.6857 81.9933C31.0616 81.9949 21.738 78.6693 14.3193 72.5891C6.9005 66.5088 1.85059 58.054 0.0385381 48.6797C-0.0646624 48.1679 0.0413462 47.6364 0.333241 47.2022C0.625136 46.7679 1.07901 46.4665 1.59501 46.3641C2.11102 46.2618 2.64687 46.3669 3.08472 46.6564C3.52256 46.9459 3.82652 47.396 3.92972 47.9078C5.66074 56.9805 10.743 65.086 18.1819 70.6383C25.6209 76.1906 34.8811 78.7899 44.1505 77.9278C53.4199 77.0656 62.0314 72.8039 68.2997 65.9767C74.5681 59.1495 78.0422 50.2481 78.0422 41.0144C78.0422 31.7807 74.5681 22.8793 68.2997 16.0521C62.0314 9.2249 53.4199 4.96323 44.1505 4.10105C34.8811 3.23888 25.6209 5.83826 18.1819 11.3905C10.743 16.9428 5.66074 25.0483 3.92972 34.121C3.83245 34.6328 3.53418 35.0853 3.10053 35.3789C2.66688 35.6726 2.13337 35.7834 1.61737 35.6869C1.10137 35.5904 0.645143 35.2946 0.349054 34.8645C0.052965 34.4344 -0.0587313 33.9053 0.0385381 33.3935C1.49368 25.7467 5.11314 18.6686 10.4739 12.9863C15.8347 7.30405 22.7154 3.25237 30.3119 1.30476C37.9084 -0.642855 45.9069 -0.405941 53.3727 1.98781C60.8384 4.38156 67.4631 8.83327 72.4724 14.8227C77.4818 20.8121 80.6689 28.0919 81.6613 35.8112C82.6538 43.5305 81.4105 51.3705 78.0769 58.415C74.7432 65.4595 69.4569 71.4175 62.8357 75.5928C56.2145 79.768 48.5319 81.988 40.6857 81.9933Z" fill="#022282"/>
<path d="M35.4668 72.3974C35.3618 72.4072 35.2561 72.4072 35.1511 72.3974C27.4599 70.9296 20.5886 66.6208 15.8819 60.3142C11.1752 54.0075 8.97182 46.1569 9.70287 38.2986C10.4339 30.4402 14.0468 23.1398 19.8346 17.8257C25.6224 12.5116 33.1684 9.56641 40.9962 9.56641C48.824 9.56641 56.3701 12.5116 62.1578 17.8257C67.9456 23.1398 71.5585 30.4402 72.2896 38.2986C73.0206 46.1569 70.8172 54.0075 66.1105 60.3142C61.4038 66.6208 54.5325 70.9296 46.8413 72.3974C46.3956 72.4831 45.9343 72.3867 45.5591 72.1295C45.1838 71.8723 44.9253 71.4753 44.8403 71.0258C44.7554 70.5764 44.851 70.1114 45.1061 69.733C45.3612 69.3546 45.7549 69.0939 46.2006 69.0082C53.0533 67.7002 59.1753 63.8609 63.3686 58.2417C67.562 52.6225 69.5251 45.6277 68.8736 38.6261C68.2221 31.6245 65.003 25.12 59.8461 20.3854C54.6893 15.6507 47.9659 13.0266 40.9916 13.0266C34.0172 13.0266 27.2938 15.6507 22.137 20.3854C16.9802 25.12 13.7611 31.6245 13.1096 38.6261C12.4581 45.6277 14.4211 52.6225 18.6145 58.2417C22.8079 63.8609 28.9299 67.7002 35.7825 69.0082C36.2027 69.0857 36.5789 69.319 36.837 69.6623C37.095 70.0055 37.2161 70.4338 37.1765 70.8626C37.1369 71.2915 36.9394 71.6898 36.6229 71.9791C36.3064 72.2684 35.894 72.4277 35.4668 72.4255V72.3974Z" fill="#022282"/>
<circle cx="40.9965" cy="40.9965" r="5.46622" fill="#FF511A"/>
</svg>
